# xmcd
#
# Track frame offsets:
#	150
#	11162
#	28525
#	47975
#	64525
#	75525
#	87650
#	96850
#	115850
#	127925
#	144212
#	159662
#
# Disc length: 2325
#
# Revision: 2
# Processed by: cddbd v1.5.1PL0 Copyright (c) Steve Scherf et al.
# Submitted via: audiograbber 1.80.04
# Normalized: r1:DSETVAR1
#
DISCID=9509130c
DTITLE=Various Artist - Country - 12 original hits
DYEAR=1900
DGENRE=Country
TTITLE0=Willie Nelson - On the road again
TTITLE1=Ricky Skaggs - Country boy
TTITLE2=David Allen Coe - Please come to boston
TTITLE3=Johnny Cash - A boy named Sue
TTITLE4=Merle Haggard - Okie from muskogee
TTITLE5=Tammy Wynette - Stand by your man
TTITLE6=Frankie Laine - Rawhide
TTITLE7=Bobby Bare - Tequila Sheila
TTITLE8=Dolly Parton - If you need me
TTITLE9=Charlie Daniels Band - the - The devil went down to Georgia
TTITLE10=Ricky Van Shelton - I am a simple man
TTITLE11=George Jones - He stopped loving her today
EXTD=
EXTT0=
EXTT1=
EXTT2=
EXTT3=
EXTT4=
EXTT5=
EXTT6=
EXTT7=
EXTT8=
EXTT9=
EXTT10=
EXTT11=
PLAYORDER=
